<?xml version="1.0" encoding="iso-8859-1"?>
<!-- Uploaded to: SVG Repo, www.svgrepo.com, Generator: SVG Repo Mixer Tools -->
<svg version="1.1" id="Layer_1" xmlns="http://www.w3.org/2000/svg" xmlns:xlink="http://www.w3.org/1999/xlink" 
	 viewBox="0 0 512 512" xml:space="preserve">
<path style="fill:#B3404A;" d="M398.631,324.617c-4.561-3.155-12.76-6.43-24.391-9.742v-34.231
	c4.782,0.785,8.407,3.096,10.792,6.878c1.633,2.659,2.637,5.829,2.985,9.423c0.149,1.544,1.448,2.724,3,2.724h14.206
	c0.814,0,1.591-0.328,2.159-0.91c0.566-0.582,0.875-1.368,0.854-2.18c-0.258-9.963-3.619-18.158-9.992-24.355
	c-5.724-5.567-13.79-8.966-24.002-10.126v-7.961c0-1.663-1.35-3.013-3.013-3.013h-7.768c-1.663,0-3.013,1.35-3.013,3.013v7.973
	c-10.345,0.701-18.655,4.396-24.738,11.011c-6.552,7.132-9.875,15.339-9.875,24.39c0,10.137,3.174,18.196,9.423,23.942
	c5.553,5.175,14.019,9.019,25.19,11.441v38.668c-6.426-1.125-10.786-3.905-13.278-8.439c-1.163-2.127-2.664-6.463-3.212-15.039
	c-0.101-1.586-1.418-2.82-3.007-2.82h-14.345c-1.663,0-3.013,1.35-3.013,3.013c0,10.061,1.621,17.83,4.949,23.739
	c5.841,10.494,16.567,16.594,31.908,18.158v11.553c0,1.663,1.35,3.013,3.013,3.013h7.768c1.663,0,3.013-1.35,3.013-3.013v-11.664
	c8.972-1.24,16.091-3.526,21.195-6.81c10.372-6.72,15.588-17.971,15.502-33.426C410.937,338.754,406.797,330.273,398.631,324.617z
	 M374.24,336.399c5.413,1.737,8.265,3.269,9.748,4.32c4.213,2.983,6.26,7.256,6.26,13.06c0,3.78-0.786,7.041-2.409,9.973
	c-2.599,4.726-7.063,7.468-13.599,8.33V336.399z M346.524,296.577c0-3.818,1.308-7.443,3.988-11.069
	c2.013-2.689,5.347-4.375,9.933-5.032v31.273c-3.887-1.141-7.035-2.732-9.542-4.814
	C347.955,304.436,346.524,301.049,346.524,296.577z"/>
<rect x="15.066" y="53.649" style="fill:#F4B2B0;" width="350.551" height="83.227"/>
<path style="fill:#B3404A;" d="M365.622,151.951H15.066C6.745,151.951,0,145.204,0,136.885V53.649
	c0-8.32,6.745-15.066,15.066-15.066h350.556c8.321,0,15.066,6.747,15.066,15.066v83.235
	C380.688,145.204,373.943,151.951,365.622,151.951z M30.133,121.818h320.423V68.715H30.133V121.818z"/>
<path style="fill:#F4B2B0;" d="M238.524,344.003H15.066v83.235h267.976C258.894,406.582,242.437,377.222,238.524,344.003z"/>
<path style="fill:#B3404A;" d="M496.934,313.617c-8.321,0-15.066,6.747-15.066,15.066c0,63.192-51.411,114.603-114.604,114.603
	c-29.41,0-56.26-11.145-76.571-29.42c-0.226-0.203-0.455-0.405-0.68-0.609c-1.183-1.08-2.341-2.188-3.477-3.316
	c-0.133-0.131-0.268-0.261-0.399-0.393c-1.231-1.234-2.435-2.495-3.608-3.785c-0.029-0.032-0.059-0.063-0.087-0.095
	c-9.846-10.837-17.649-23.564-22.793-37.564c-0.306-0.836-0.576-1.687-0.862-2.531c-0.282-0.827-0.579-1.65-0.842-2.484
	c-0.47-1.501-0.901-3.013-1.311-4.535c-0.051-0.19-0.111-0.377-0.161-0.566c-0.429-1.63-0.82-3.274-1.177-4.927
	c-0.02-0.087-0.041-0.172-0.06-0.259c-0.362-1.689-0.683-3.388-0.967-5.098c-0.009-0.056-0.021-0.112-0.03-0.167
	c-0.283-1.716-0.527-3.441-0.734-5.177c-0.536-4.488-0.845-9.046-0.845-13.677c0-63.192,51.411-114.603,114.603-114.603
	c29.191,0,56.996,10.979,78.294,30.913c6.073,5.685,15.607,5.368,21.295-0.705c5.686-6.075,5.371-15.609-0.704-21.295
	c-26.722-25.01-61.554-39.051-98.149-39.235c0,0-1.567,0-2.378,0H15.066C6.745,183.758,0,190.505,0,198.824v83.235
	c0,8.32,6.745,15.066,15.066,15.066h153.959c8.321,0,15.066-6.747,15.066-15.066s-6.745-15.066-15.066-15.066H30.133v-53.102
	h249.084c-34.445,26.482-56.69,68.084-56.69,114.791c0,0.084,0.003,0.169,0.003,0.253H15.066C6.745,328.935,0,335.682,0,344.002
	v83.235c0,8.32,6.745,15.066,15.066,15.066h262.637c24.656,19.476,55.773,31.115,89.559,31.115
	c79.808,0,144.737-64.929,144.737-144.736C512,320.364,505.255,313.617,496.934,313.617z M30.133,412.171v-53.102h195.612
	c0.77,3.59,1.674,7.132,2.706,10.619c0.011,0.038,0.023,0.075,0.033,0.113c0.303,1.021,0.616,2.04,0.942,3.051
	c0.098,0.309,0.2,0.615,0.3,0.922c0.238,0.725,0.481,1.446,0.729,2.167c0.2,0.579,0.404,1.156,0.612,1.731
	c0.155,0.431,0.312,0.86,0.47,1.288c0.31,0.839,0.63,1.675,0.955,2.509c0.057,0.146,0.115,0.292,0.173,0.438
	c4.226,10.699,9.713,20.856,16.371,30.264H30.133z"/>
</svg>